<?xml version="1.0" encoding="UTF-8"?>
<!DOCTYPE svg PUBLIC "-//W3C//DTD SVG 1.1//EN" "http://www.w3.org/Graphics/SVG/1.1/DTD/svg11.dtd">
<svg xmlns="http://www.w3.org/2000/svg" version="1.1" width="3000px" height="3000px" style="shape-rendering:geometricPrecision; text-rendering:geometricPrecision; image-rendering:optimizeQuality; fill-rule:evenodd; clip-rule:evenodd" xmlns:xlink="http://www.w3.org/1999/xlink">
<g><path style="opacity:1" fill="#fabb33" d="M 960.5,714.5 C 794.201,830.21 674.868,984.877 602.5,1178.5C 550.257,1328.59 535.257,1482.59 557.5,1640.5C 666.5,1640.5 775.5,1640.5 884.5,1640.5C 884.5,1424.83 884.5,1209.17 884.5,993.5C 1006.5,993.5 1128.5,993.5 1250.5,993.5C 1250.69,995.564 1251.19,997.564 1252,999.5C 1287.83,1068.58 1323.16,1137.91 1358,1207.5C 1359.37,1209.75 1360.87,1211.91 1362.5,1214C 1417.85,1323.8 1473.52,1433.63 1529.5,1543.5C 1529.5,1656.83 1529.5,1770.17 1529.5,1883.5C 1502.83,1883.5 1476.17,1883.5 1449.5,1883.5C 1344.66,1680.83 1239.16,1478.49 1133,1276.5C 1132.5,1478.83 1132.33,1681.17 1132.5,1883.5C 850.833,1883.5 569.167,1883.5 287.5,1883.5C 287.603,1880.78 287.269,1878.11 286.5,1875.5C 271.806,1828.43 259.973,1781.43 251,1734.5C 250.088,1729.54 249.588,1724.54 249.5,1719.5C 249.405,1717.21 248.738,1715.21 247.5,1713.5C 203.038,1438.67 241.705,1177.51 363.5,930C 476.36,710.541 637.027,537.208 845.5,410C 1085.81,268.009 1347.81,210.009 1631.5,236C 1765.31,250.201 1893.65,284.535 2016.5,339C 2028.23,344.186 2040.06,350.02 2052,356.5C 2052.33,356.167 2052.67,355.833 2053,355.5C 2070.19,364.412 2086.85,373.412 2103,382.5C 2103.33,382.167 2103.67,381.833 2104,381.5C 2121.01,391.842 2138.01,402.176 2155,412.5C 2155.33,412.167 2155.67,411.833 2156,411.5C 2159.55,414.526 2163.05,417.526 2166.5,420.5C 2106.86,506.953 2046.86,593.119 1986.5,679C 1984.62,679.576 1982.79,679.409 1981,678.5C 1800.31,572.667 1602.81,531 1388.5,553.5C 1337.57,560.203 1287.4,570.203 1238,583.5C 1138.75,612.65 1046.25,656.317 960.5,714.5 Z"/></g>
<g><path style="opacity:0.004" fill="#979312" d="M 960.5,714.5 C 961.833,715.167 961.833,715.167 960.5,714.5 Z"/></g>
<g><path style="opacity:0.995" fill="#000000" d="M 2163.5,1236.5 C 2161.5,1451.83 2160.83,1667.5 2161.5,1883.5C 2077.83,1883.5 1994.17,1883.5 1910.5,1883.5C 1910.83,1679.17 1910.5,1474.83 1909.5,1270.5C 1908.7,1270.96 1908.37,1271.62 1908.5,1272.5C 1907.46,1273.93 1906.8,1275.6 1906.5,1277.5C 1853.49,1380.69 1799.83,1483.52 1745.5,1586C 1693.56,1685.61 1642.22,1784.78 1591.5,1883.5C 1570.83,1883.5 1550.17,1883.5 1529.5,1883.5C 1529.5,1770.17 1529.5,1656.83 1529.5,1543.5C 1623.48,1360.6 1717.48,1177.6 1811.5,994.5C 2095.83,993.5 2380.17,993.167 2664.5,993.5C 2754.58,1203.17 2786.41,1423.51 2760,1654.5C 2722.61,1935.95 2606.78,2178.61 2412.5,2382.5C 2233.54,2565.11 2018.87,2684.61 1768.5,2741C 1509.34,2794.44 1257.67,2771.94 1013.5,2673.5C 976.287,2657.54 939.287,2640.04 902.5,2621C 895.78,2616.99 889.113,2612.99 882.5,2609C 943.36,2522.72 1004.03,2436.05 1064.5,2349C 1066.91,2348.52 1069.25,2348.85 1071.5,2350C 1222.27,2425.81 1383.93,2459.14 1556.5,2450C 1727.05,2438.45 1881.05,2387.45 2018.5,2297C 2153.19,2208.95 2259.52,2093.95 2337.5,1952C 2444.61,1748.26 2475.94,1532.09 2431.5,1303.5C 2426.97,1280.82 2421.3,1258.48 2414.5,1236.5C 2330.83,1236.5 2247.17,1236.5 2163.5,1236.5 Z"/></g>
<g><path style="opacity:0.696" fill="#0f0302" d="M 2163.5,1236.5 C 2164.17,1452.5 2163.5,1668.17 2161.5,1883.5C 2160.83,1667.5 2161.5,1451.83 2163.5,1236.5 Z"/></g>
<g><path style="opacity:0.768" fill="#1b0505" d="M 1910.5,1883.5 C 1910.17,1883.5 1909.83,1883.5 1909.5,1883.5C 1909.83,1679.67 1909.5,1476 1908.5,1272.5C 1908.37,1271.62 1908.7,1270.96 1909.5,1270.5C 1910.5,1474.83 1910.83,1679.17 1910.5,1883.5 Z"/></g>
<g><path style="opacity:0.29" fill="#280808" d="M 1908.5,1272.5 C 1909.5,1476 1909.83,1679.67 1909.5,1883.5C 1908.67,1681.33 1908.17,1479 1908,1276.5C 1907.62,1277.06 1907.12,1277.39 1906.5,1277.5C 1906.8,1275.6 1907.46,1273.93 1908.5,1272.5 Z"/></g>
<g><path style="opacity:0.016" fill="#827e10" d="M 247.5,1713.5 C 248.738,1715.21 249.405,1717.21 249.5,1719.5C 247.692,1718.08 247.025,1716.08 247.5,1713.5 Z"/></g>
</svg>
